HIERARCHY
ROOT pelvis
{
  OFFSET 0 100 0
  CHANNELS 6 Xposition Yposition Zposition Zrotation Xrotation Yrotation
  JOINT pelvis_right_femur
  {
    OFFSET -10.78128 -3.44521 -0.5502486
    CHANNELS 3 Zrotation Xrotation Yrotation
    JOINT right_femur_tibia
    {
      OFFSET -0.8047443 -44.0398 -0.1307829
      CHANNELS 3 Zrotation Xrotation Yrotation
      JOINT right_tibia_foot
      {
        OFFSET 3.006224 -47.83518 -5
        CHANNELS 3 Zrotation Xrotation Yrotation
        End Site
        {
          OFFSET 0 -5 15
        }
      }
    }
  }
  JOINT pelvis_left_femur
  {
    OFFSET 10.78128 -3.44521 -0.5502486
    CHANNELS 3 Zrotation Xrotation Yrotation
    JOINT left_femur_tibia
    {
      OFFSET 0.8047443 -44.0398 -0.1307829
      CHANNELS 3 Zrotation Xrotation Yrotation
      JOINT left_tibia_foot
      {
        OFFSET -4.370144 -48.10324 -4.275266
        CHANNELS 3 Zrotation Xrotation Yrotation
        End Site
        {
          OFFSET 0 -5 15
        }
      }
    }
  }
  JOINT pelvis_spine1
  {
    OFFSET 0 6.468898 -3.129235
    CHANNELS 3 Zrotation Xrotation Yrotation
    JOINT spine1
    {
      OFFSET 0 23.15396 4.99043
      CHANNELS 3 Zrotation Xrotation Yrotation
      JOINT spine2
      {
        OFFSET 0 20.79997 -5.064912
        CHANNELS 3 Zrotation Xrotation Yrotation
        JOINT neck
        {
          OFFSET 0 14.38658 9.616178
          CHANNELS 3 Zrotation Xrotation Yrotation
          End Site
          {
            OFFSET 0 20 0
          }
        }
      }
      JOINT right_manubrium
      {
        OFFSET -5.722621 16.35077 3.967754
        CHANNELS 3 Zrotation Xrotation Yrotation
        JOINT right_clavicle
        {
          OFFSET -13.16364 1.694482 -4.693211
          CHANNELS 3 Zrotation Xrotation Yrotation
          JOINT right_humerus
          {
            OFFSET -28.5034 -0.3100689 -2.792744
            CHANNELS 3 Zrotation Xrotation Yrotation
            JOINT right_radius
            {
              OFFSET -25.15693 0.02248979 -1.271978
              CHANNELS 3 Zrotation Xrotation Yrotation
              End Site
              {
                OFFSET -15 0 0
              }
            }
          }
        }
      }
      JOINT left_manubrium
      {
        OFFSET 5.722621 16.35077 3.967754
        CHANNELS 3 Zrotation Xrotation Yrotation
        JOINT left_clavicle
        {
          OFFSET 13.16364 1.694482 -4.693211
          CHANNELS 3 Zrotation Xrotation Yrotation
          JOINT left_humerus
          {
            OFFSET 29.39168 -1.063119 -2.237045
            CHANNELS 3 Zrotation Xrotation Yrotation
            JOINT left_radius
            {
              OFFSET 24.59957 -0.9528479 0.9047498
              CHANNELS 3 Zrotation Xrotation Yrotation
              End Site
              {
                OFFSET 15 -0 -0
              }
            }
          }
        }
      }
    }
  }
}
MOTION
Frames: 19
Frame Time: 0.0416666666667
-785.7606 95.14258 2604.143 -6.231214 -6.948159 -55.43481 -2.289338 18.9984 -0.6881803 -0 43.31912 -0 -15.36364 9.377417 3.216699 -5.377665 -9.781529 -13.79652 -0 16.91561 -0 -2.122165 -8.617571 20.9598 3.397364 -3.632299 10.64855 0.1911594 17.90166 -6.49474 1.908937 16.87727 -0.9404238 -3.645451 -21.0576 4.729515 -5.052247 -34.93996 12.38403 91.73171 16.96512 -9.546353 -0 0 33.36063 -19.33808 18.74848 14.94841 -0.1502557 -21.59699 -5.065104 -94.55795 10.67111 43.5885 0 0 -12.33637 4.693859 11.33611 11.18994
-790.2357 96.68356 2608.434 -6.785714 -7.141902 -54.84438 -1.915504 14.03231 -0.9462163 -0 51.07277 -0 -17.09526 14.48951 4.048213 -5.854145 -5.670801 -14.38577 -0 17.65554 -0 -1.413898 -10.12397 21.45516 3.495579 -3.705881 10.81797 0.2483497 17.84115 -6.739414 1.841021 16.88854 -0.9231179 -3.763086 -21.15022 4.719574 -5.587664 -34.84022 12.29122 92.57629 16.80041 -10.53528 -0 0 32.59823 -18.98424 18.35647 14.46044 -0.1845134 -22.1061 -5.148246 -94.10993 10.81998 43.16229 0 0 -14.43446 4.475367 11.16234 11.55391
-794.238 98.28011 2612.245 -7.294072 -6.821476 -54.14258 -0.9923016 7.281552 -1.409819 -0 55.26283 -0 -18.0958 16.42904 4.333092 -5.708606 -1.547835 -14.2378 -0 17.06348 -0 -0.7107885 -11.42477 21.43442 3.693051 -3.883785 11.11113 0.2926323 17.90461 -7.05034 1.790669 16.77597 -0.9718612 -3.987184 -21.27129 4.726705 -6.172789 -34.85523 12.23154 93.52815 16.38355 -11.71412 -0 0 31.96108 -18.59158 18.14625 14.00386 -0.1900608 -22.75499 -5.184987 -93.64424 11.00231 42.82702 0 0 -17.10833 4.203146 10.94122 12.12114
-797.8053 99.59838 2615.634 -7.458917 -6.231547 -53.44187 -0.1138735 0.1572398 -2.136643 -0 54.28104 -0 -18.08735 15.44897 4.053174 -5.34671 2.155746 -13.74162 -0 15.47877 -0 -0.4839473 -12.91124 20.75236 3.955403 -4.139844 11.4826 0.3238004 18.05694 -7.404649 1.753556 16.5851 -1.058301 -4.276362 -21.40599 4.749315 -6.780615 -34.93417 12.19753 94.54112 15.77314 -13.02079 -0 0 31.39487 -18.20075 18.06786 13.57872 -0.1626707 -23.50638 -5.193382 -93.16144 11.21287 42.52281 0 0 -20.17709 3.904824 10.70498 12.80955
-801.0836 100.3777 2618.723 -7.1167 -5.609934 -52.81005 0.362061 -6.228007 -3.147153 -0 48.47284 -0 -17.19512 12.68105 3.462216 -5.082161 5.238966 -13.19065 -0 13.44693 -0 -0.7710644 -14.74826 19.48889 4.233279 -4.440184 11.85936 0.3444486 18.25346 -7.775256 1.724673 16.38129 -1.140527 -4.567521 -21.53265 4.78424 -7.365811 -34.99246 12.18701 95.55958 15.04093 -14.39743 -0 0 30.79821 -17.87521 18.04989 13.18096 -0.08967682 -24.32055 -5.20868 -92.64493 11.43851 42.12552 0 0 -23.41792 3.629012 10.51292 13.48016
-804.2426 100.5038 2621.646 -6.313057 -5.069937 -52.27822 0.4230057 -11.46604 -4.304584 -0 39.74167 -0 -15.75342 9.41406 2.840076 -5.045733 7.715281 -12.70555 -0 11.52938 -0 -1.161693 -16.74794 17.98077 4.475802 -4.749533 12.15979 0.3614364 18.44899 -8.137276 1.700831 16.23216 -1.178467 -4.799703 -21.63524 4.829487 -7.884318 -34.94229 12.20039 96.53658 14.25657 -15.79525 -0 0 30.05523 -17.67659 18.01931 12.80563 0.03779124 -25.15717 -5.269472 -92.07063 11.66353 41.49638 0 0 -26.61124 3.425184 10.43153 13.98719
-807.4205 100.0075 2624.525 -5.231803 -4.603321 -51.85016 0.2804136 -15.70038 -5.373918 -0 30.3138 -0 -14.12399 6.594498 2.341954 -5.21776 9.693521 -12.27212 -0 10.16029 -0 -1.128982 -18.56557 16.65316 4.643154 -5.036027 12.31699 0.3842492 18.60485 -8.471946 1.680665 16.18979 -1.145249 -4.931951 -21.70954 4.884865 -8.308646 -34.72124 12.23588 97.4426 13.48126 -17.1733 -0 0 29.0755 -17.63971 17.9177 12.44703 0.2170836 -25.97731 -5.402816 -91.42249 11.87473 40.53749 0 0 -29.5768 3.328258 10.50802 14.22512
-810.717 99.01708 2627.456 -4.080081 -4.152742 -51.51215 0.1750647 -19.24286 -6.179601 -0 21.77914 -0 -12.60323 4.69227 2.011673 -5.507449 11.28677 -11.81454 -0 9.616827 -0 -0.3886059 -19.91724 15.77976 4.714946 -5.274628 12.29721 0.4208517 18.69448 -8.76685 1.663974 16.2779 -1.032704 -4.950936 -21.7623 4.951405 -8.631788 -34.31034 12.28655 98.26224 12.7664 -18.49185 -0 0 27.82985 -17.76007 17.71362 12.10011 0.4340796 -26.74417 -5.613415 -90.70705 12.06468 39.23119 0 0 -32.18818 3.351864 10.75093 14.15585
-814.2107 97.70643 2630.515 -3.02158 -3.67511 -51.24348 0.2687998 -22.29586 -6.670965 -0 14.88325 -0 -11.3834 3.797661 1.838015 -5.816029 12.58123 -11.25463 -0 10.07442 -0 0.9807755 -20.644 15.37103 4.691581 -5.449029 12.10516 0.4739624 18.70677 -9.013569 1.651265 16.48899 -0.8505654 -4.867775 -21.80506 5.029859 -8.860497 -33.73596 12.34146 98.98379 12.15378 -19.70568 -0 0 26.36573 -17.99976 17.40748 11.76456 0.6685384 -27.42291 -5.882575 -89.95809 12.23181 37.64802 0 0 -34.36416 3.489096 11.12872 13.80776
-817.9715 96.26362 2633.756 -2.170269 -3.163464 -51.02613 0.6441478 -24.86871 -6.873359 -0 9.805687 -0 -10.55804 3.772855 1.785171 -6.061912 13.62937 -10.54189 -0 11.68046 -0 2.642713 -20.6764 15.23624 4.589283 -5.552101 11.77631 0.5399749 18.64594 -9.205024 1.643489 16.79153 -0.6213039 -4.708304 -21.84693 5.118692 -9.004918 -33.05826 12.38976 99.59015 11.67534 -20.76154 -0 0 24.79682 -18.30633 17.02728 11.44926 0.899843 -27.98085 -6.176807 -89.22987 12.37705 35.92573 0 0 -36.04772 3.717223 11.58477 13.25348
-822.0597 94.8785 2637.219 -1.61252 -2.641916 -50.85382 1.344656 -26.80487 -6.813067 -0 6.502864 -0 -10.15236 4.357264 1.795442 -6.179023 14.43775 -9.664728 -0 14.59929 -0 4.171407 -19.98624 15.11876 4.432474 -5.584991 11.36296 0.6103649 18.52856 -9.333861 1.641832 17.14167 -0.3737192 -4.502924 -21.89007 5.212645 -9.071199 -32.3546 12.42439 100.0551 11.35311 -21.59991 -0 0 23.27684 -18.63246 16.61886 11.17446 1.110092 -28.38815 -6.459694 -88.58524 12.49932 34.23661 0 0 -37.18675 4.003572 12.05794 12.58215
-826.5138 93.73854 2640.919 -1.425656 -2.155117 -50.74092 2.398947 -27.83811 -6.477097 -0 4.901592 -0 -10.15177 5.213392 1.782736 -6.108362 14.94099 -8.656268 -0 19.00617 -0 5.18643 -18.5596 14.81717 4.246994 -5.555084 10.92139 0.6741033 18.37871 -9.392049 1.647531 17.49389 -0.1376177 -4.279784 -21.92896 5.302652 -9.059152 -31.70509 12.44353 100.3448 11.20034 -22.15857 -0 0 21.9716 -18.94727 16.23556 10.97023 1.28454 -28.61852 -6.70057 -88.08562 12.59248 32.75841 0 0 -37.72371 4.311175 12.49762 11.87873
-831.3276 93.01928 2644.837 -1.673101 -1.760056 -50.73052 3.800904 -27.65969 -5.825698 -0 4.910774 -0 -10.51597 5.948053 1.635469 -5.798851 14.96478 -7.598226 -0 25.01662 -0 5.453508 -16.40384 14.26963 4.055967 -5.473662 10.50357 0.7199379 18.22316 -9.371678 1.66164 17.80747 0.05968884 -4.061946 -21.95253 5.377092 -8.963614 -31.18305 12.44993 100.4218 11.22262 -22.37782 -0 0 21.03712 -19.23755 15.93029 10.8718 1.411033 -28.65053 -6.877846 -87.78477 12.64496 31.65418 0 0 -37.598 4.603704 12.86947 11.21409
-836.4252 92.85829 2648.904 -2.365735 -1.518418 -50.89472 5.443141 -26.01408 -4.853873 -0 6.28948 -0 -11.18021 6.158073 1.247212 -5.228914 14.19721 -6.61362 -0 32.54371 -0 4.966615 -13.60123 13.59243 3.878525 -5.354555 10.15342 0.7383008 18.08805 -9.2674 1.684666 18.04871 0.1955347 -3.867418 -21.94775 5.423999 -8.777628 -30.84909 12.44963 100.2524 11.41564 -22.20953 -0 0 20.60272 -19.50188 15.75107 10.91271 1.480183 -28.47153 -6.978378 -87.72441 12.64223 31.0577 0 0 -36.76375 4.849867 13.15347 10.64371
-841.6492 93.31107 2652.997 -3.397974 -1.488046 -51.31342 7.047289 -22.82583 -3.665732 -0 8.46824 -0 -12.04784 5.538721 0.5846049 -4.448916 12.22081 -5.833348 -0 41.10743 -0 3.977364 -10.40036 13.0371 3.730632 -5.214547 9.905802 0.7230698 17.9974 -9.080672 1.716167 18.19056 0.2535772 -3.710703 -21.90374 5.433995 -8.496372 -30.74654 12.45091 99.81628 11.7578 -21.63257 -0 0 20.75487 -19.74205 15.73913 11.11684 1.487231 -28.08562 -6.99538 -87.9286 12.57179 31.05854 0 0 -35.22334 5.027696 13.33853 10.21085
-846.7897 94.30675 2656.961 -4.510932 -1.716289 -52.02173 8.190902 -18.30363 -2.486608 -0 10.52251 -0 -12.97419 4.037143 -0.2401357 -3.608642 8.68107 -5.336556 -0 49.68638 -0 2.900399 -7.268929 12.84381 3.626539 -5.074353 9.785279 0.6730911 17.97265 -8.824157 1.754749 18.21201 0.2255109 -3.604301 -21.81614 5.40368 -8.121027 -30.89614 12.46355 99.11749 12.20121 -20.67131 -0 0 21.51987 -19.95568 15.92737 11.49073 1.43523 -27.52251 -6.926727 -88.39672 12.42945 31.68416 0 0 -33.06483 5.128582 13.41801 9.948894
-851.6587 95.64112 2660.667 -5.37086 -2.22764 -52.95251 8.508858 -12.92287 -1.560799 -0 11.5071 -0 -13.75765 1.930475 -0.9846301 -2.89283 3.587299 -5.097109 -0 56.75516 -0 2.092824 -4.781426 13.07617 3.578463 -4.956781 9.802414 0.5925225 18.03097 -8.522133 1.798961 18.09998 0.1127632 -3.557796 -21.6902 5.338166 -7.660227 -31.29029 12.49775 98.19131 12.67283 -19.40389 -0 0 22.85217 -20.13458 16.33554 12.01947 1.33768 -26.83839 -6.774701 -89.09865 12.22325 32.88425 0 0 -30.47263 5.160213 13.38936 9.876464
-856.1695 97.02689 2664.063 -5.773696 -2.977011 -53.9398 7.981624 -7.264051 -0.9938448 -0 11.03425 -0 -14.19391 -0.326195 -1.439286 -2.346318 -2.48025 -4.970179 -0 60.60228 -0 1.666125 -3.329797 13.60373 3.592307 -4.879584 9.947614 0.4889899 18.18027 -8.203207 1.84853 17.85511 -0.07221658 -3.57229 -21.53892 5.250136 -7.125739 -31.88905 12.56231 97.09579 13.09615 -17.94497 -0 0 24.63933 -20.27147 16.96122 12.66947 1.218085 -26.10106 -6.547597 -89.97772 11.97039 34.52942 0 0 -27.68002 5.147293 13.25917 9.982276
-860.3506 98.16908 2667.181 -5.796612 -3.784857 -54.80802 7.034667 -1.841923 -0.6961461 -0 9.537468 -0 -14.20149 -2.442829 -1.607267 -1.753324 -8.555347 -4.727342 -0 59.87514 -0 1.515728 -2.878449 14.24686 3.661188 -4.846432 10.1874 0.3705783 18.41268 -7.888658 1.904412 17.49821 -0.306318 -3.633347 -21.37562 5.154489 -6.524908 -32.62263 12.66247 95.89066 13.42425 -16.40651 -0 0 26.72613 -20.37047 17.77093 13.39751 1.104469 -25.36559 -6.262138 -90.96275 11.68843 36.43391 0 0 -24.87979 5.127442 13.04937 10.21151
